<?xml version="1.0" encoding="utf-8"?>
<!-- Generator: Adobe Illustrator 22.1.0, SVG Export Plug-In . SVG Version: 6.00 Build 0)  -->
<svg version="1.1" id="Layer_1" xmlns="http://www.w3.org/2000/svg" xmlns:xlink="http://www.w3.org/1999/xlink" x="0px" y="0px"
	 viewBox="0 0 960 540" enable-background="new 0 0 960 540" xml:space="preserve">
<rect fill="#099ED0" width="960" height="540"/>
<path fill="#F3EBE1" d="M842,251.4c-5.3,11.7-17,19.8-30.6,19.8c-13.6,0-25.3-8.1-30.6-19.8c5.2-11.7,16.9-19.8,30.6-19.8
	C825,231.6,836.8,239.7,842,251.4z"/>
<polygon fill="#8127FF" points="697.2,225.9 724.9,253.6 697.2,281.2 "/>
<rect x="758.9" y="201.3" transform="matrix(-0.7071 0.7071 -0.7071 -0.7071 1454.424 -186.2792)" fill="#F3EBE1" width="13.8" height="13.5"/>
<rect x="780" y="358.8" transform="matrix(-0.7071 0.7071 -0.7071 -0.7071 1601.7688 67.7157)" fill="#F3EBE1" width="13.8" height="13.5"/>
<rect x="702" y="282.2" transform="matrix(-0.7071 0.7071 -0.7071 -0.7071 1414.403 -8.0082)" fill="#F3EBE1" width="13.8" height="13.5"/>
<rect x="586.2" y="388.6" transform="matrix(-0.7071 0.7071 -0.7071 -0.7071 1292.8439 257.3636)" fill="#FF0040" width="13.8" height="15.7"/>
<path fill="#C200FF" d="M745.2,145.5L745.2,145.5c-2.6,0-4.7-2.1-4.7-4.7v-23.9c0-2.6,2.1-4.7,4.7-4.7l0,0c2.6,0,4.7,2.1,4.7,4.7
	v23.9C749.9,143.4,747.8,145.5,745.2,145.5z"/>
<path fill="#C200FF" d="M810.3,365.6L810.3,365.6c-1.8,1.8-4.8,1.8-6.6,0l-14.9-14.9c-1.8-1.8-1.8-4.8,0-6.6l0,0
	c1.8-1.8,4.8-1.8,6.6,0l14.9,14.9C812.2,360.8,812.2,363.8,810.3,365.6z"/>
<path fill="#F3EBE1" d="M610.5,391.8L610.5,391.8c-1.8,1.8-4.8,1.8-6.6,0l-12.6-12.6c-1.8-1.8-1.8-4.8,0-6.6l0,0
	c1.8-1.8,4.8-1.8,6.6,0l12.6,12.6C612.3,387,612.3,389.9,610.5,391.8z"/>
<path fill="#C200FF" d="M706.4,316.9L706.4,316.9c-3.6,3.6-9.5,3.6-13.1,0l-19.2-19.2c-3.6-3.6-3.6-9.5,0-13.1l0,0
	c3.6-3.6,9.5-3.6,13.1,0l19.2,19.2C710.1,307.4,710.1,313.2,706.4,316.9z"/>
<circle fill="#006EF3" cx="665.7" cy="253.8" r="25.3"/>
<circle fill="#8127FF" cx="742.1" cy="100.4" r="8.8"/>
<path fill="#F500FF" d="M739.4,246.3c7.7,7.7,7.7,20.2,0,27.9c-7.7,7.7-20.2,7.7-27.9,0L739.4,246.3z"/>
<path fill="#FF0040" d="M760.3,160.1c-5.3,0-9.6-4.3-9.6-9.6s4.3-9.6,9.6-9.6V160.1z"/>
<path fill="#8127FF" d="M732.3,379.2c0-7.8,6.3-14.1,14.1-14.1c7.8,0,14.1,6.3,14.1,14.1H732.3z"/>
<path fill="#C200FF" d="M605.3,334.4c0-7.8,6.3-14.1,14.1-14.1c7.8,0,14.1,6.3,14.1,14.1H605.3z"/>
<path fill="#8127FF" d="M708.3,342.5c-5.2,0-9.4-4.2-9.4-9.4c0-5.2,4.2-9.4,9.4-9.4V342.5z"/>
<path fill="#C200FF" d="M795.1,328.9c-5.3,0-9.6-4.3-9.6-9.6s4.3-9.6,9.6-9.6V328.9z"/>
<polygon fill="#F3EBE1" points="628.9,258.9 656.6,286.6 628.9,314.2 "/>
<polygon fill="#F500FF" points="619.6,362.1 608.8,372.9 598,362.1 "/>
<polygon fill="#006EF3" points="747.5,172.9 766.3,191.7 747.5,210.6 "/>
<polygon fill="#006EF3" points="712.6,305.9 731.4,324.8 712.6,343.6 "/>
<polygon fill="#006EF3" points="729.2,87.3 740.5,76 751.8,87.3 "/>
<polygon fill="#006EF3" points="771.3,316.2 790.1,335 771.3,353.9 "/>
<polygon fill="#0356FC" points="578,428.6 596.8,409.8 615.6,428.6 "/>
<polygon fill="#006EF3" points="744,383.4 770.6,383.4 770.6,410 "/>
<rect x="716" y="224" transform="matrix(0.7071 0.7071 -0.7071 0.7071 379.0943 -445.6643)" fill="#F3EBE1" width="23" height="21.6"/>
<rect x="715.5" y="343.2" transform="matrix(0.7071 0.7071 -0.7071 0.7071 463.4419 -410.8936)" fill="#FF0040" width="24.4" height="21.6"/>
<rect x="599" y="340.2" fill="#006EF3" width="22.4" height="17.2"/>
<rect x="769.1" y="290.1" transform="matrix(0.7071 0.7071 -0.7071 0.7071 441.3877 -462.2668)" fill="#006EF3" width="19.2" height="23"/>
<rect x="749.2" y="220.9" fill="#006EF3" width="26.2" height="65.1"/>
<rect x="775.6" y="390" fill="#0356FC" width="11.5" height="38.6"/>
<rect x="806.5" y="408.8" fill="#FF0040" width="20.1" height="17"/>
<rect x="804.2" y="386.6" transform="matrix(-0.7071 0.7071 -0.7071 -0.7071 1662.6405 97.9137)" fill="#006EF3" width="13.8" height="13.5"/>
<rect x="749.8" y="155.8" transform="matrix(-0.7071 0.7071 -0.7071 -0.7071 1402.8364 -247.3157)" fill="#0356FC" width="5.6" height="22.2"/>
<rect x="618.1" y="291.5" transform="matrix(-1 -1.224647e-16 1.224647e-16 -1 1241.778 605.2582)" fill="#0356FC" width="5.6" height="22.2"/>
<circle fill="#C200FF" cx="800.2" cy="376.8" r="6.9"/>
<circle fill="#8127FF" cx="811.4" cy="251.4" r="12.4"/>
<circle fill="#251F20" cx="811.4" cy="251.4" r="7.1"/>
<polygon fill="#0356FC" points="178,256.1 213,256.1 213,291.1 "/>
<circle fill="#FF0040" cx="177.6" cy="278.6" r="12.4"/>
<polygon fill="#8127FF" points="131,237 146.6,252.6 131,268.3 "/>
<polygon fill="#006EF3" points="188.8,291 195.8,284 202.8,291 "/>
<polygon fill="#0356FC" points="152.8,291 159.8,284 166.8,291 "/>
<rect x="135.9" y="264.8" transform="matrix(0.7071 0.7071 -0.7071 0.7071 237.9089 -23.1547)" fill="#F3EBE1" width="21.9" height="21.6"/>
<rect x="98.2" y="225.9" fill="#006EF3" width="26.2" height="65.1"/>
<path fill="#F500FF" d="M213,236.4L213,236.4c0,5.8-4.7,10.6-10.6,10.6h-51.9c-5.8,0-10.6-4.7-10.6-10.6v0c0-5.8,4.7-10.6,10.6-10.6
	h51.9C208.3,225.9,213,230.6,213,236.4z"/>
<rect x="156" y="252" fill="#006EF3" width="12" height="12"/>
<polygon fill="#8127FF" points="132.3,325 155.6,301.7 178.9,325 "/>
<rect x="90.1" y="337.6" fill="#006EF3" width="131" height="91"/>
<rect y="-652" fill="#FF3D1B" width="960" height="540"/>
<path fill="#E1F3E7" d="M842-400.6c-5.3,11.7-17,19.8-30.6,19.8c-13.6,0-25.3-8.1-30.6-19.8c5.2-11.7,16.9-19.8,30.6-19.8
	C825-420.4,836.8-412.3,842-400.6z"/>
<polygon fill="#FF9327" points="697.2,-426.1 724.9,-398.4 697.2,-370.8 "/>
<rect x="758.9" y="-450.7" transform="matrix(-0.7071 0.7071 -0.7071 -0.7071 993.3903 -1299.3129)" fill="#E1F3E7" width="13.8" height="13.5"/>
<rect x="780" y="-293.2" transform="matrix(-0.7071 0.7071 -0.7071 -0.7071 1140.7351 -1045.318)" fill="#E1F3E7" width="13.8" height="13.5"/>
<rect x="702" y="-369.8" transform="matrix(-0.7071 0.7071 -0.7071 -0.7071 953.3693 -1121.0419)" fill="#E1F3E7" width="13.8" height="13.5"/>
<rect x="586.2" y="-263.4" transform="matrix(-0.7071 0.7071 -0.7071 -0.7071 831.8102 -855.67)" fill="#FFF200" width="13.8" height="15.7"/>
<path fill="#FFA800" d="M745.2-506.5L745.2-506.5c-2.6,0-4.7-2.1-4.7-4.7v-23.9c0-2.6,2.1-4.7,4.7-4.7l0,0c2.6,0,4.7,2.1,4.7,4.7
	v23.9C749.9-508.6,747.8-506.5,745.2-506.5z"/>
<path fill="#FFA800" d="M810.3-286.4L810.3-286.4c-1.8,1.8-4.8,1.8-6.6,0l-14.9-14.9c-1.8-1.8-1.8-4.8,0-6.6l0,0
	c1.8-1.8,4.8-1.8,6.6,0l14.9,14.9C812.2-291.2,812.2-288.2,810.3-286.4z"/>
<path fill="#E1F3E7" d="M610.5-260.2L610.5-260.2c-1.8,1.8-4.8,1.8-6.6,0l-12.6-12.6c-1.8-1.8-1.8-4.8,0-6.6l0,0
	c1.8-1.8,4.8-1.8,6.6,0l12.6,12.6C612.3-265,612.3-262.1,610.5-260.2z"/>
<path fill="#FFA800" d="M706.4-335.1L706.4-335.1c-3.6,3.6-9.5,3.6-13.1,0l-19.2-19.2c-3.6-3.6-3.6-9.5,0-13.1l0,0
	c3.6-3.6,9.5-3.6,13.1,0l19.2,19.2C710.1-344.6,710.1-338.8,706.4-335.1z"/>
<circle fill="#F3001B" cx="665.7" cy="-398.2" r="25.3"/>
<circle fill="#FF9327" cx="742.1" cy="-551.6" r="8.8"/>
<path fill="#FFB700" d="M739.4-405.7c7.7,7.7,7.7,20.2,0,27.9c-7.7,7.7-20.2,7.7-27.9,0L739.4-405.7z"/>
<path fill="#FFF200" d="M760.3-491.9c-5.3,0-9.6-4.3-9.6-9.6s4.3-9.6,9.6-9.6V-491.9z"/>
<path fill="#FF9327" d="M732.3-272.8c0-7.8,6.3-14.1,14.1-14.1c7.8,0,14.1,6.3,14.1,14.1H732.3z"/>
<path fill="#FFA800" d="M605.3-317.6c0-7.8,6.3-14.1,14.1-14.1c7.8,0,14.1,6.3,14.1,14.1H605.3z"/>
<path fill="#FF9327" d="M708.3-309.5c-5.2,0-9.4-4.2-9.4-9.4c0-5.2,4.2-9.4,9.4-9.4V-309.5z"/>
<path fill="#FFA800" d="M795.1-323.1c-5.3,0-9.6-4.3-9.6-9.6s4.3-9.6,9.6-9.6V-323.1z"/>
<polygon fill="#E1F3E7" points="628.9,-393.1 656.6,-365.4 628.9,-337.8 "/>
<polygon fill="#FFB700" points="619.6,-289.9 608.8,-279.1 598,-289.9 "/>
<polygon fill="#F3001B" points="747.5,-479.1 766.3,-460.3 747.5,-441.4 "/>
<polygon fill="#F3001B" points="712.6,-346.1 731.4,-327.2 712.6,-308.4 "/>
<polygon fill="#F3001B" points="729.2,-564.7 740.5,-576 751.8,-564.7 "/>
<polygon fill="#F3001B" points="771.3,-335.8 790.1,-317 771.3,-298.1 "/>
<polygon fill="#FC0303" points="578,-223.4 596.8,-242.2 615.6,-223.4 "/>
<polygon fill="#F3001B" points="744,-268.6 770.6,-268.6 770.6,-242 "/>
<rect x="716" y="-428" transform="matrix(0.7071 0.7071 -0.7071 0.7071 -81.9393 -636.6306)" fill="#E1F3E7" width="23" height="21.6"/>
<rect x="715.5" y="-308.8" transform="matrix(0.7071 0.7071 -0.7071 0.7071 2.4082 -601.86)" fill="#FFF200" width="24.4" height="21.6"/>
<rect x="599" y="-311.8" fill="#F3001B" width="22.4" height="17.2"/>
<rect x="769.1" y="-361.9" transform="matrix(0.7071 0.7071 -0.7071 0.7071 -19.646 -653.2332)" fill="#F3001B" width="19.2" height="23"/>
<rect x="749.2" y="-431.1" fill="#F3001B" width="26.2" height="65.1"/>
<rect x="775.6" y="-262" fill="#FC0303" width="11.5" height="38.6"/>
<rect x="806.5" y="-243.2" fill="#FFF200" width="20.1" height="17"/>
<rect x="804.2" y="-265.4" transform="matrix(-0.7071 0.7071 -0.7071 -0.7071 1201.6069 -1015.1199)" fill="#F3001B" width="13.8" height="13.5"/>
<rect x="749.8" y="-496.2" transform="matrix(-0.7071 0.7071 -0.7071 -0.7071 941.8029 -1360.3494)" fill="#FC0303" width="5.6" height="22.2"/>
<rect x="618.1" y="-360.5" transform="matrix(-1 -1.224647e-16 1.224647e-16 -1 1241.778 -698.7418)" fill="#FC0303" width="5.6" height="22.2"/>
<circle fill="#FFA800" cx="800.2" cy="-275.2" r="6.9"/>
<circle fill="#FF9327" cx="811.4" cy="-400.6" r="12.4"/>
<circle fill="#251F20" cx="811.4" cy="-400.6" r="7.1"/>
<polygon fill="#FC0303" points="178,-395.9 213,-395.9 213,-360.9 "/>
<circle fill="#FFF200" cx="177.6" cy="-373.4" r="12.4"/>
<polygon fill="#FF9327" points="131,-415 146.6,-399.4 131,-383.7 "/>
<polygon fill="#F3001B" points="188.8,-361 195.8,-368 202.8,-361 "/>
<polygon fill="#FC0303" points="152.8,-361 159.8,-368 166.8,-361 "/>
<rect x="135.9" y="-387.2" transform="matrix(0.7071 0.7071 -0.7071 0.7071 -223.1248 -214.1211)" fill="#E1F3E7" width="21.9" height="21.6"/>
<rect x="98.2" y="-426.1" fill="#F3001B" width="26.2" height="65.1"/>
<path fill="#FFB700" d="M213-415.6L213-415.6c0,5.8-4.7,10.6-10.6,10.6h-51.9c-5.8,0-10.6-4.7-10.6-10.6v0c0-5.8,4.7-10.6,10.6-10.6
	h51.9C208.3-426.1,213-421.4,213-415.6z"/>
<rect x="156" y="-400" fill="#F3001B" width="12" height="12"/>
<polygon fill="#FF9327" points="132.3,-327 155.6,-350.3 178.9,-327 "/>
<rect x="90.1" y="-314.4" fill="#F3001B" width="131" height="91"/>
<rect y="-1286" fill="#FF3D1B" width="960" height="540"/>
<path fill="#E1F3E7" d="M842-1034.6c-5.3,11.7-17,19.8-30.6,19.8c-13.6,0-25.3-8.1-30.6-19.8c5.2-11.7,16.9-19.8,30.6-19.8
	C825-1054.4,836.8-1046.3,842-1034.6z"/>
<polygon fill="#FF8BC7" points="697.2,-1060.1 724.9,-1032.4 697.2,-1004.8 "/>
<rect x="758.9" y="-1084.7" transform="matrix(-0.7071 0.7071 -0.7071 -0.7071 545.0846 -2381.6187)" fill="#E1F3E7" width="13.8" height="13.5"/>
<rect x="780" y="-927.2" transform="matrix(-0.7071 0.7071 -0.7071 -0.7071 692.4294 -2127.6235)" fill="#E1F3E7" width="13.8" height="13.5"/>
<rect x="702" y="-1003.8" transform="matrix(-0.7071 0.7071 -0.7071 -0.7071 505.0636 -2203.3474)" fill="#E1F3E7" width="13.8" height="13.5"/>
<rect x="586.2" y="-897.4" transform="matrix(-0.7071 0.7071 -0.7071 -0.7071 383.5045 -1937.9757)" fill="#FFF200" width="13.8" height="15.7"/>
<path fill="#736480" d="M745.2-1140.5L745.2-1140.5c-2.6,0-4.7-2.1-4.7-4.7v-23.9c0-2.6,2.1-4.7,4.7-4.7l0,0c2.6,0,4.7,2.1,4.7,4.7
	v23.9C749.9-1142.6,747.8-1140.5,745.2-1140.5z"/>
<path fill="#736480" d="M810.3-920.4L810.3-920.4c-1.8,1.8-4.8,1.8-6.6,0l-14.9-14.9c-1.8-1.8-1.8-4.8,0-6.6l0,0
	c1.8-1.8,4.8-1.8,6.6,0l14.9,14.9C812.2-925.2,812.2-922.2,810.3-920.4z"/>
<path fill="#E1F3E7" d="M610.5-894.2L610.5-894.2c-1.8,1.8-4.8,1.8-6.6,0l-12.6-12.6c-1.8-1.8-1.8-4.8,0-6.6l0,0
	c1.8-1.8,4.8-1.8,6.6,0l12.6,12.6C612.3-899,612.3-896.1,610.5-894.2z"/>
<path fill="#736480" d="M706.4-969.1L706.4-969.1c-3.6,3.6-9.5,3.6-13.1,0l-19.2-19.2c-3.6-3.6-3.6-9.5,0-13.1v0
	c3.6-3.6,9.5-3.6,13.1,0l19.2,19.2C710.1-978.6,710.1-972.8,706.4-969.1z"/>
<circle fill="#00B891" cx="665.7" cy="-1032.2" r="25.3"/>
<circle fill="#FFA800" cx="742.1" cy="-1185.6" r="8.8"/>
<path fill="#FFB700" d="M739.4-1039.7c7.7,7.7,7.7,20.2,0,27.9c-7.7,7.7-20.2,7.7-27.9,0L739.4-1039.7z"/>
<path fill="#FFF200" d="M760.3-1125.9c-5.3,0-9.6-4.3-9.6-9.6s4.3-9.6,9.6-9.6V-1125.9z"/>
<path fill="#FFA800" d="M732.3-906.8c0-7.8,6.3-14.1,14.1-14.1c7.8,0,14.1,6.3,14.1,14.1H732.3z"/>
<path fill="#FFA800" d="M605.3-951.6c0-7.8,6.3-14.1,14.1-14.1c7.8,0,14.1,6.3,14.1,14.1H605.3z"/>
<path fill="#FFF200" d="M708.3-943.5c-5.2,0-9.4-4.2-9.4-9.4c0-5.2,4.2-9.4,9.4-9.4V-943.5z"/>
<path fill="#FFA800" d="M795.1-957.1c-5.3,0-9.6-4.3-9.6-9.6s4.3-9.6,9.6-9.6V-957.1z"/>
<polygon fill="#E1F3E7" points="628.9,-1027.1 656.6,-999.4 628.9,-971.8 "/>
<polygon fill="#24FFA6" points="619.6,-923.9 608.8,-913.1 598,-923.9 "/>
<polygon fill="#FF8BC7" points="747.5,-1113.1 766.3,-1094.3 747.5,-1075.4 "/>
<polygon fill="#F3001B" points="712.6,-980.1 731.4,-961.2 712.6,-942.4 "/>
<polygon fill="#FF8BC7" points="729.2,-1198.7 740.5,-1210 751.8,-1198.7 "/>
<polygon fill="#F3001B" points="771.3,-969.8 790.1,-951 771.3,-932.1 "/>
<polygon fill="#736480" points="578,-857.4 596.8,-876.2 615.6,-857.4 "/>
<polygon fill="#FF8BC7" points="744,-902.6 770.6,-902.6 770.6,-876 "/>
<rect x="716" y="-1062" transform="matrix(0.7071 0.7071 -0.7071 0.7071 -530.245 -822.325)" fill="#E1F3E7" width="23" height="21.6"/>
<rect x="715.5" y="-942.8" transform="matrix(0.7071 0.7071 -0.7071 0.7071 -445.8975 -787.5543)" fill="#00B891" width="24.4" height="21.6"/>
<rect x="599" y="-945.8" fill="#F3001B" width="22.4" height="17.2"/>
<rect x="769.1" y="-995.9" transform="matrix(0.7071 0.7071 -0.7071 0.7071 -467.9517 -838.9275)" fill="#00B891" width="19.2" height="23"/>
<rect x="749.2" y="-1065.1" fill="#F3001B" width="26.2" height="65.1"/>
<rect x="775.6" y="-896" fill="#00B891" width="11.5" height="38.6"/>
<rect x="806.5" y="-877.2" fill="#FFF200" width="20.1" height="17"/>
<rect x="804.2" y="-899.4" transform="matrix(-0.7071 0.7071 -0.7071 -0.7071 753.3012 -2097.4255)" fill="#FF8BC7" width="13.8" height="13.5"/>
<rect x="749.8" y="-1130.2" transform="matrix(-0.7071 0.7071 -0.7071 -0.7071 493.4972 -2442.655)" fill="#24FFA6" width="5.6" height="22.2"/>
<rect x="618.1" y="-994.5" transform="matrix(-1 -1.224647e-16 1.224647e-16 -1 1241.778 -1966.7418)" fill="#FF8BC7" width="5.6" height="22.2"/>
<circle fill="#24FFA6" cx="800.2" cy="-909.2" r="6.9"/>
<linearGradient id="SVGID_1_" gradientUnits="userSpaceOnUse" x1="799.0776" y1="-1034.625" x2="823.7829" y2="-1034.625">
	<stop  offset="0" style="stop-color:#E1F3E7"/>
	<stop  offset="1" style="stop-color:#FFB700"/>
</linearGradient>
<circle fill="url(#SVGID_1_)" cx="811.4" cy="-1034.6" r="12.4"/>
<circle fill="#251F20" cx="811.4" cy="-1034.6" r="7.1"/>
<polygon fill="#FF8BC7" points="178,-1029.9 213,-1029.9 213,-994.9 "/>
<circle fill="#FFF200" cx="177.6" cy="-1007.4" r="12.4"/>
<polygon fill="#24FFA6" points="131,-1049 146.6,-1033.4 131,-1017.7 "/>
<polygon fill="#F3001B" points="188.8,-995 195.8,-1002 202.8,-995 "/>
<polygon fill="#FF8BC7" points="152.8,-995 159.8,-1002 166.8,-995 "/>
<rect x="135.9" y="-1021.2" transform="matrix(0.7071 0.7071 -0.7071 0.7071 -671.4305 -399.8154)" fill="#E1F3E7" width="21.9" height="21.6"/>
<rect x="98.2" y="-1060.1" fill="#F3001B" width="26.2" height="65.1"/>
<path fill="#FFB700" d="M213-1049.6L213-1049.6c0,5.8-4.7,10.6-10.6,10.6h-51.9c-5.8,0-10.6-4.7-10.6-10.6l0,0
	c0-5.8,4.7-10.6,10.6-10.6h51.9C208.3-1060.1,213-1055.4,213-1049.6z"/>
<rect x="156" y="-1034" fill="#00B891" width="12" height="12"/>
<polygon fill="#24FFA6" points="132.3,-961 155.6,-984.3 178.9,-961 "/>
<rect x="90.1" y="-948.4" fill="#F3001B" width="131" height="91"/>
<rect x="-1251" y="-1286" fill="#251F20" width="960" height="540"/>
<g>
	<path fill="#F3EFE1" d="M-409-1034.6c-5.3,11.7-17,19.8-30.6,19.8s-25.3-8.1-30.6-19.8c5.2-11.7,16.9-19.8,30.6-19.8
		S-414.2-1046.3-409-1034.6z"/>
	<polygon fill="#79FBFF" points="-553.8,-1060.1 -526.1,-1032.4 -553.8,-1004.8 	"/>
	
		<rect x="-492.1" y="-1084.7" transform="matrix(-0.7071 0.7071 -0.7071 -0.7071 -1590.506 -1497.028)" fill="#F3EFE1" width="13.8" height="13.5"/>
	
		<rect x="-471" y="-927.2" transform="matrix(-0.7071 0.7071 -0.7071 -0.7071 -1443.1611 -1243.0331)" fill="#F3EFE1" width="13.8" height="13.5"/>
	
		<rect x="-549" y="-1003.8" transform="matrix(-0.7071 0.7071 -0.7071 -0.7071 -1630.527 -1318.757)" fill="#F3EFE1" width="13.8" height="13.5"/>
	
		<rect x="-664.8" y="-897.4" transform="matrix(-0.7071 0.7071 -0.7071 -0.7071 -1752.0861 -1053.3851)" fill="#FF0064" width="13.8" height="15.7"/>
	<path fill="#736480" d="M-505.8-1140.5L-505.8-1140.5c-2.6,0-4.7-2.1-4.7-4.7v-23.9c0-2.6,2.1-4.7,4.7-4.7l0,0
		c2.6,0,4.7,2.1,4.7,4.7v23.9C-501.1-1142.6-503.2-1140.5-505.8-1140.5z"/>
	<path fill="#736480" d="M-440.7-920.4L-440.7-920.4c-1.8,1.8-4.8,1.8-6.6,0l-14.9-14.9c-1.8-1.8-1.8-4.8,0-6.6l0,0
		c1.8-1.8,4.8-1.8,6.6,0l14.9,14.9C-438.8-925.2-438.8-922.2-440.7-920.4z"/>
	<path fill="#F3EFE1" d="M-640.5-894.2L-640.5-894.2c-1.8,1.8-4.8,1.8-6.6,0l-12.6-12.6c-1.8-1.8-1.8-4.8,0-6.6l0,0
		c1.8-1.8,4.8-1.8,6.6,0l12.6,12.6C-638.7-899-638.7-896.1-640.5-894.2z"/>
	<path fill="#736480" d="M-544.6-969.1L-544.6-969.1c-3.6,3.6-9.5,3.6-13.1,0l-19.2-19.2c-3.6-3.6-3.6-9.5,0-13.1v0
		c3.6-3.6,9.5-3.6,13.1,0l19.2,19.2C-540.9-978.6-540.9-972.8-544.6-969.1z"/>
	<circle fill="#FFA712" cx="-585.3" cy="-1032.2" r="25.3"/>
	<circle fill="#FF0097" cx="-508.9" cy="-1185.6" r="8.8"/>
	<path fill="#FF0064" d="M-511.6-1039.7c7.7,7.7,7.7,20.2,0,27.9c-7.7,7.7-20.2,7.7-27.9,0L-511.6-1039.7z"/>
	<path fill="#FF0064" d="M-490.7-1125.9c-5.3,0-9.6-4.3-9.6-9.6s4.3-9.6,9.6-9.6V-1125.9z"/>
	<path fill="#FF0097" d="M-518.7-906.8c0-7.8,6.3-14.1,14.1-14.1c7.8,0,14.1,6.3,14.1,14.1H-518.7z"/>
	<path fill="#FF0097" d="M-645.7-951.6c0-7.8,6.3-14.1,14.1-14.1c7.8,0,14.1,6.3,14.1,14.1H-645.7z"/>
	<path fill="#FF0097" d="M-542.7-943.5c-5.2,0-9.4-4.2-9.4-9.4c0-5.2,4.2-9.4,9.4-9.4V-943.5z"/>
	<path fill="#FF0097" d="M-455.9-957.1c-5.3,0-9.6-4.3-9.6-9.6s4.3-9.6,9.6-9.6V-957.1z"/>
	<polygon fill="#F3EFE1" points="-622.1,-1027.1 -594.4,-999.4 -622.1,-971.8 	"/>
	<polygon fill="#FFA712" points="-631.4,-923.9 -642.2,-913.1 -653,-923.9 	"/>
	<polygon fill="#79FBFF" points="-503.5,-1113.1 -484.7,-1094.3 -503.5,-1075.4 	"/>
	<polygon fill="#0020C2" points="-538.4,-980.1 -519.6,-961.2 -538.4,-942.4 	"/>
	<polygon fill="#79FBFF" points="-521.8,-1198.7 -510.5,-1210 -499.2,-1198.7 	"/>
	<polygon fill="#0020C2" points="-479.7,-969.8 -460.9,-951 -479.7,-932.1 	"/>
	<polygon fill="#736480" points="-673,-857.4 -654.2,-876.2 -635.4,-857.4 	"/>
	<polygon fill="#79FBFF" points="-507,-902.6 -480.4,-902.6 -480.4,-876 	"/>
	
		<rect x="-535" y="-1062" transform="matrix(0.7071 0.7071 -0.7071 0.7071 -896.6544 62.2656)" fill="#F3EFE1" width="23" height="21.6"/>
	<linearGradient id="SVGID_2_" gradientUnits="userSpaceOnUse" x1="-539.5405" y1="-932.0229" x2="-507.0328" y2="-932.0229">
		<stop  offset="0" style="stop-color:#C08300"/>
		<stop  offset="1" style="stop-color:#FFA712"/>
	</linearGradient>
	<polygon fill="url(#SVGID_2_)" points="-522.3,-915.8 -539.5,-933 -524.3,-948.3 -507,-931.1 	"/>
	<rect x="-652" y="-945.8" fill="#0020C2" width="22.4" height="17.2"/>
	
		<rect x="-481.9" y="-995.9" transform="matrix(0.7071 0.7071 -0.7071 0.7071 -834.3611 45.6631)" fill="#C08300" width="19.2" height="23"/>
	<rect x="-501.8" y="-1065.1" fill="#0020C2" width="26.2" height="65.1"/>
	<rect x="-475.4" y="-896" fill="#C08300" width="11.5" height="38.6"/>
	<rect x="-444.5" y="-877.2" fill="#FF0097" width="20.1" height="17"/>
	<linearGradient id="SVGID_3_" gradientUnits="userSpaceOnUse" x1="-449.5927" y1="-892.699" x2="-430.324" y2="-892.699">
		<stop  offset="0" style="stop-color:#79FBFF"/>
		<stop  offset="1" style="stop-color:#0020C2"/>
	</linearGradient>
	<polygon fill="url(#SVGID_3_)" points="-449.6,-892.6 -439.9,-902.3 -430.3,-892.8 -440,-883.1 	"/>
	
		<rect x="-501.2" y="-1130.2" transform="matrix(-0.7071 0.7071 -0.7071 -0.7071 -1642.0934 -1558.0645)" fill="#FFA712" width="5.6" height="22.2"/>
	
		<rect x="-632.9" y="-994.5" transform="matrix(-1 -1.224647e-16 1.224647e-16 -1 -1260.222 -1966.7418)" fill="#79FBFF" width="5.6" height="22.2"/>
	<circle fill="#FFA712" cx="-450.8" cy="-909.2" r="6.9"/>
	<linearGradient id="SVGID_4_" gradientUnits="userSpaceOnUse" x1="-451.9224" y1="-1034.625" x2="-427.2171" y2="-1034.625">
		<stop  offset="0" style="stop-color:#F3EFE1"/>
		<stop  offset="1" style="stop-color:#FF0064"/>
	</linearGradient>
	<circle fill="url(#SVGID_4_)" cx="-439.6" cy="-1034.6" r="12.4"/>
	<circle fill="#251F20" cx="-439.6" cy="-1034.6" r="7.1"/>
</g>
<g>
	<g>
		<polygon fill="#79FBFF" points="-1073,-1029.9 -1038,-1029.9 -1038,-994.9 		"/>
		<circle fill="#FF0097" cx="-1073.4" cy="-1007.4" r="12.4"/>
		<polygon fill="#FFA712" points="-1120,-1049 -1104.4,-1033.4 -1120,-1017.7 		"/>
		<polygon fill="#0020C2" points="-1062.2,-995 -1055.2,-1002 -1048.2,-995 		"/>
		<polygon fill="#79FBFF" points="-1098.2,-995 -1091.2,-1002 -1084.2,-995 		"/>
		
			<rect x="-1115.1" y="-1021.2" transform="matrix(0.7071 0.7071 -0.7071 0.7071 -1037.8398 484.7752)" fill="#F3EFE1" width="21.9" height="21.6"/>
		<rect x="-1152.8" y="-1060.1" fill="#0020C2" width="26.2" height="65.1"/>
		<path fill="#FF0064" d="M-1038-1049.6L-1038-1049.6c0,5.8-4.7,10.6-10.6,10.6h-51.9c-5.8,0-10.6-4.7-10.6-10.6l0,0
			c0-5.8,4.7-10.6,10.6-10.6h51.9C-1042.7-1060.1-1038-1055.4-1038-1049.6z"/>
		<rect x="-1095" y="-1034" fill="#C08300" width="12" height="12"/>
	</g>
	<polygon fill="#FFA712" points="-1118.7,-961 -1095.4,-984.3 -1072.1,-961 	"/>
</g>
<rect x="-1160.9" y="-948.4" fill="#0020C2" width="131" height="91"/>
<rect x="30" y="-1425" fill="#F3001B" width="106" height="106"/>
<rect x="188.2" y="-1425" fill="#FF8BC7" width="106" height="106"/>
<rect x="346.4" y="-1425" fill="#00B891" width="106" height="106"/>
<rect x="504.6" y="-1425" fill="#FFB700" width="106" height="106"/>
<rect x="662.8" y="-1425" fill="#FFF200" width="106" height="106"/>
<rect x="821.1" y="-1425" fill="#F1F2F2" width="106" height="106"/>
<rect x="979.3" y="-1425" fill="#787166" width="106" height="106"/>
<rect x="347" y="-1564" fill="#24FFA6" width="106" height="106"/>
<rect fill="#099ED0" width="960" height="540"/>
</svg>
